<?xml version="1.0" encoding="UTF-8"?>
<svg id="Layer_1" data-name="Layer 1" xmlns="http://www.w3.org/2000/svg" viewBox="0 0 1000 1000">
  <defs>
    <style>
      .cls-1 {
        fill: #282828;
      }
    </style>
  </defs>
  <g>
    <g>
      <path class="cls-1" d="M836.06,592.84c1.88,1.85,3.82,3.57,5.83,5.14,6.67,5.25,16.46.5,16.46-7.99h0c0-3.11-1.42-6.06-3.88-7.97-1.42-1.1-2.78-2.3-4.11-3.6-8.34-8.28-12.51-18.58-12.51-30.91,0-12.34,4.18-22.64,12.51-30.91,1.32-1.3,2.69-2.5,4.11-3.6,2.46-1.91,3.88-4.86,3.88-7.97h0c0-8.5-9.8-13.25-16.47-7.98-2,1.58-3.94,3.3-5.81,5.16-12.42,12.26-18.61,27.38-18.61,45.31,0,17.93,6.2,33.03,18.61,45.33Z"/>
      <path class="cls-1" d="M860.85,573.12c1.14,1.13,2.32,2.17,3.54,3.12,4.93,3.82,12.15.27,12.46-5.97h0c.12-2.54-.99-4.99-3-6.54-.67-.52-1.33-1.09-1.96-1.71-3.92-3.88-5.88-8.73-5.88-14.52,0-5.79,1.96-10.63,5.88-14.52.63-.62,1.28-1.19,1.96-1.71,2.01-1.56,3.12-4,3-6.54h0c-.3-6.23-7.52-9.79-12.46-5.97-1.22.95-2.4,1.98-3.54,3.12-7.02,6.94-10.53,15.48-10.53,25.62,0,10.14,3.51,18.67,10.53,25.62Z"/>
      <path class="cls-1" d="M883.73,557.45c1.11,1.1,2.31,1.97,3.61,2.62,2.89,1.45,6.3-.78,6.3-4.01h0c0-1.66-.79-3.33-2.28-4.08-.45-.23-.87-.53-1.25-.92-.96-.94-1.45-2.14-1.45-3.55,0-1.41.49-2.61,1.45-3.55.38-.38.8-.68,1.25-.91,1.48-.75,2.28-2.42,2.28-4.08h0c0-3.25-3.41-5.48-6.3-4.03-1.3.65-2.5,1.52-3.61,2.62-2.73,2.69-4.08,6-4.08,9.94,0,3.94,1.35,7.26,4.08,9.94Z"/>
    </g>
    <path class="cls-1" d="M816.5,491.21c-15.18,15.07-22.78,33.84-22.78,56.29s7.6,41.22,22.78,56.29c15.2,15.07,33.82,22.61,55.89,22.61,1.25,0,2.48-.02,3.71-.07,4.23-.16,7.77,3.18,7.77,7.42v22.83c0,3.98-3.13,7.3-7.11,7.43-1.45.05-2.91.07-4.37.07-32.45,0-59.95-11.21-82.51-33.69-22.56-22.45-33.84-50.09-33.84-82.89s11.28-60.42,33.84-82.89c22.56-22.45,50.07-33.69,82.51-33.69,1.47,0,2.93.02,4.37.07,3.98.13,7.11,3.45,7.11,7.43v22.83c0,4.24-3.53,7.58-7.77,7.42-1.23-.05-2.47-.07-3.71-.07-22.07,0-40.69,7.54-55.89,22.61Z"/>
    <path class="cls-1" d="M989.19,547.89c0,17.22-3.12,33-9.42,47.36-5.63,13.01-13.87,24.87-24.67,35.53-11.84,11.73-25.02,20.38-39.51,26-4.46,1.73-9.28-1.55-9.3-6.34l-.1-30.59-.04-10.42c.4-12.97,10.37-17.46,20.26-18.73,2.99-.38,7.6-.09,12.92.49,8.13-12.46,12.19-26.88,12.19-43.31s-3.99-30.61-11.97-43c-5.41.62-10.11.91-13.14.51-9.88-1.24-19.86-5.74-20.26-18.71l.04-10.77.1-30.57c.02-4.78,4.83-8.07,9.3-6.34,14.5,5.61,27.67,14.27,39.52,25.99,10.88,10.77,19.17,22.74,24.82,35.88,6.18,14.27,9.26,29.94,9.26,47.01Z"/>
  </g>
  <g>
    <path class="cls-1" d="M218.54,605.44c.98,5.74.07,10.86-2.73,15.33l-.42.84-.84.84c-10.08,11.76-21.78,21.08-35.08,27.94-13.3,6.87-27.52,10.99-42.64,12.39-15.41,1.4-30.32-.07-44.74-4.41-14.43-4.34-27.66-11.41-39.7-21.21-11.21-9.24-20.31-20.3-27.31-33.19-7-12.88-11.62-27.02-13.86-42.43v-.84c0-1.4-.07-2.87-.21-4.41-.14-1.54-.21-3.01-.21-4.41,0-14.84,2.31-28.63,6.93-41.38,4.62-12.74,11.41-24.01,20.37-33.82,8.96-12.32,19.88-21.85,32.77-28.57,12.88-6.72,27.3-10.78,43.27-12.18,29.68-3.92,57.55,4.2,83.6,24.37l.42.42,3.36,3.36c2.24,2.25,4.55,4.62,6.93,7.14,2.38,2.52,4.68,5.19,6.93,7.98l.42.42.42,1.26c.84,1.12,1.68,2.66,2.52,4.62.84,1.96,1.26,4.48,1.26,7.56,0,2.8-.63,5.46-1.89,7.98-1.26,2.52-2.17,4.35-2.73,5.46l-.84.84-.84.84c-.28,0-2.73,1.96-7.35,5.88-4.62,3.92-10.58,8.89-17.85,14.91-7.29,6.03-15.41,12.89-24.37,20.58-8.97,7.71-17.92,15.34-26.89,22.9-8.97,7.56-17.51,14.78-25.63,21.63-8.13,6.87-14.85,12.53-20.16,17.01,13.16,7,26.89,9.66,41.17,7.98,9.24-1.11,17.92-3.78,26.05-7.98,8.12-4.2,15.12-9.8,21-16.8,3.36-4.2,7.28-6.72,11.76-7.56,6.16-1.4,12.32-.14,18.48,3.78l.84.42.42.42c3.92,3.64,6.37,8.34,7.35,14.07ZM165.4,491.39c-13.44-9.52-29.41-13.72-47.89-12.6-8.96.84-17.58,3.57-25.84,8.19-8.26,4.62-15.2,10.58-20.79,17.86v.42h-.42c-10.37,12.04-15.54,26.61-15.54,43.69,0,9.81,2.24,19.75,6.72,29.83,7.28-6.44,17.36-15.05,30.25-25.84,12.88-10.78,27.3-22.89,43.27-36.34,5.88-4.76,11.41-9.31,16.59-13.65,5.18-4.34,9.73-8.19,13.65-11.55Z"/>
    <path class="cls-1" d="M469.97,590.11c0,3.92-1.12,7.7-3.36,11.34-10.36,19.05-24.23,34.03-41.59,44.95-18.49,11.21-38.23,16.8-59.23,16.8-15.69,0-30.53-2.87-44.53-8.61-14.01-5.74-26.33-14.07-36.97-25-10.92-10.92-19.32-23.38-25.21-37.39-5.88-14-8.82-28.84-8.82-44.53s3.01-30.88,9.03-44.74c6.02-13.86,14.28-26.05,24.79-36.55,10.5-10.5,22.75-18.76,36.76-24.78,14-6.02,28.98-9.03,44.95-9.03,18.76,0,36.26,4.14,52.51,12.4,16.24,8.26,29.54,19.95,39.91,35.08,3.08,3.92,4.62,8.4,4.62,13.44v1.26c-.57,6.16-3.23,11.07-7.98,14.7l-.42.42c-6.44,4.2-12.89,5.46-19.32,3.78-5.04-.84-9.24-3.64-12.6-8.4-6.45-9.24-14.78-16.52-25-21.85-10.23-5.31-20.8-7.98-31.72-7.98-19.61,0-36.55,7.14-50.83,21.42-14.28,14.28-21.43,31.23-21.43,50.83,0,9.81,1.89,18.98,5.67,27.52,3.78,8.55,8.96,16.04,15.54,22.48,6.58,6.44,14.21,11.49,22.89,15.12,8.68,3.64,18.06,5.46,28.15,5.46,14,0,26.39-3.22,37.18-9.66,10.78-6.44,18.97-15.54,24.58-27.3v-.84l.42-.42c4.2-5.88,9.38-9.24,15.54-10.08,5.04-1.11,9.94-.28,14.71,2.52,4.76,2.24,8.26,5.88,10.5,10.92.84,2.25,1.26,4.49,1.26,6.72Z"/>
    <path class="cls-1" d="M694.71,466.18c11.48,10.64,20.16,22.89,26.04,36.76,5.88,13.86,8.82,28.5,8.82,43.9v95.78c0,5.61-2.24,10.64-6.72,15.12-4.48,4.49-9.66,6.72-15.54,6.72-6.72,0-11.97-2.31-15.75-6.93-3.78-4.62-5.67-9.59-5.67-14.91v-95.78c0-9.52-1.89-18.55-5.67-27.1-3.78-8.54-9.18-16.03-16.17-22.47-14.85-13.44-32.91-20.16-54.19-20.16s-37.81,6.72-52.09,20.16c-14.28,13.44-21.43,29.97-21.43,49.57v95.78c0,5.32-1.89,10.29-5.67,14.91-3.78,4.62-9.31,6.93-16.59,6.93-5.61,0-10.65-2.24-15.12-6.72-4.48-4.48-6.72-9.52-6.72-15.12v-285.24c0-5.32,1.95-10.29,5.88-14.91,3.92-4.62,9.24-6.93,15.96-6.93,5.88,0,11.06,2.25,15.54,6.72,4.48,4.48,6.72,9.52,6.72,15.12v99.98c10.36-7.84,21.84-13.86,34.45-18.06,12.6-4.2,25.63-6.3,39.07-6.3,16.24,0,31.64,2.87,46.21,8.61,14.56,5.74,27.44,13.93,38.65,24.58Z"/>
  </g>
</svg>